<svg width="1021" height="351" viewBox="0 0 1021 351" fill="none" xmlns="http://www.w3.org/2000/svg">
<path d="M252.003 158.372C289.925 222.773 243.493 303.999 168.756 304C94.0183 304 47.5859 222.774 85.5088 158.372L168.756 17L252.003 158.372ZM249.595 224.643C246.594 223.47 243.278 225.598 242.631 228.754C239.764 242.749 229.168 264.099 202.185 273.933C199.775 274.811 198.386 277.415 199.182 279.853C199.898 282.048 202.137 283.377 204.358 282.746C220.734 278.097 247.789 262.621 252.474 229.426C252.765 227.359 251.539 225.402 249.595 224.643ZM157.336 142.564C146.003 136.021 131.836 144.201 131.836 157.287V222.558C131.836 235.644 146.003 243.824 157.336 237.28L213.861 204.645C225.194 198.101 225.194 181.744 213.861 175.2L157.336 142.564Z" fill="#1979EF"/>
<path d="M92.2681 146.891C85.518 159.867 81.7544 174.296 81.7544 189.5C81.7544 246.109 133.913 292 198.254 292C205.095 292 211.798 291.479 218.316 290.483C204.11 298.993 187.305 304 168.754 304C94.0169 304 47.5845 222.774 85.5073 158.372L92.2681 146.891Z" fill="#0149BF"/>
<path d="M366.554 132.86C374.301 132.86 381.348 134.073 387.694 136.5C394.134 138.833 399.641 142.193 404.214 146.58C408.881 150.873 412.474 156.007 414.994 161.98C417.514 167.953 418.774 174.58 418.774 181.86C418.774 189.233 417.468 195.907 414.854 201.88C412.334 207.853 408.741 213.033 404.074 217.42C399.408 221.807 393.808 225.167 387.274 227.5C380.741 229.833 373.508 231 365.574 231H324.274V132.86H366.554ZM367.254 210.56C370.988 210.56 374.394 209.907 377.474 208.6C380.554 207.2 383.214 205.24 385.454 202.72C387.788 200.2 389.561 197.213 390.774 193.76C391.988 190.213 392.594 186.34 392.594 182.14C392.594 177.847 391.941 173.973 390.634 170.52C389.328 166.973 387.461 163.94 385.034 161.42C382.701 158.807 379.901 156.847 376.634 155.54C373.461 154.14 369.914 153.44 365.994 153.44H349.894V210.56H367.254Z" fill="#34415A"/>
<path d="M472.514 187.464C467.992 186.952 464.024 187.336 460.61 188.616C457.282 189.896 454.68 191.859 452.802 194.504C451.01 197.064 450.114 200.179 450.114 203.848L444.738 202.824C444.738 195.315 445.848 188.872 448.066 183.496C450.37 178.12 453.613 174.024 457.794 171.208C461.976 168.307 466.882 166.856 472.514 166.856V187.464ZM427.458 167.88H450.242V237H427.458V167.88ZM509.466 167.112C517.061 167.112 523.674 168.563 529.306 171.464C535.024 174.365 539.461 178.461 542.618 183.752C545.776 189.043 547.354 195.229 547.354 202.312C547.354 209.395 545.776 215.624 542.618 221C539.461 226.291 535.024 230.429 529.306 233.416C523.674 236.317 517.061 237.768 509.466 237.768C501.872 237.768 495.216 236.317 489.498 233.416C483.866 230.429 479.472 226.291 476.314 221C473.242 215.624 471.706 209.395 471.706 202.312C471.706 195.229 473.242 189.043 476.314 183.752C479.472 178.461 483.866 174.365 489.498 171.464C495.216 168.563 501.872 167.112 509.466 167.112ZM509.466 185.16C506.48 185.16 503.877 185.885 501.658 187.336C499.44 188.787 497.69 190.835 496.41 193.48C495.216 196.125 494.618 199.197 494.618 202.696C494.618 206.195 495.216 209.267 496.41 211.912C497.69 214.472 499.44 216.477 501.658 217.928C503.877 219.379 506.48 220.104 509.466 220.104C512.453 220.104 515.056 219.379 517.274 217.928C519.578 216.477 521.328 214.472 522.522 211.912C523.802 209.267 524.442 206.195 524.442 202.696C524.442 199.197 523.802 196.125 522.522 193.48C521.328 190.835 519.578 188.787 517.274 187.336C515.056 185.885 512.453 185.16 509.466 185.16ZM597.619 167.112C604.105 167.112 609.737 168.605 614.515 171.592C619.379 174.493 623.134 178.632 625.779 184.008C628.51 189.299 629.875 195.571 629.875 202.824C629.875 209.736 628.553 215.837 625.907 221.128C623.347 226.419 619.678 230.515 614.899 233.416C610.206 236.317 604.617 237.768 598.131 237.768C592.329 237.768 587.294 236.36 583.027 233.544C578.846 230.643 575.603 226.589 573.299 221.384C571.081 216.093 569.971 209.864 569.971 202.696C569.971 195.357 571.081 189.043 573.299 183.752C575.518 178.376 578.675 174.28 582.771 171.464C586.953 168.563 591.902 167.112 597.619 167.112ZM591.987 184.648C589.171 184.648 586.611 185.416 584.307 186.952C582.089 188.403 580.339 190.451 579.059 193.096C577.865 195.656 577.267 198.685 577.267 202.184C577.267 205.597 577.865 208.669 579.059 211.4C580.339 214.045 582.089 216.093 584.307 217.544C586.611 218.995 589.171 219.72 591.987 219.72C594.974 219.72 597.577 218.995 599.795 217.544C602.099 216.008 603.849 213.917 605.043 211.272C606.323 208.627 606.963 205.597 606.963 202.184C606.963 198.771 606.323 195.741 605.043 193.096C603.849 190.451 602.099 188.403 599.795 186.952C597.577 185.416 594.974 184.648 591.987 184.648ZM554.483 167.88H577.267V261.832H554.483V167.88ZM675.897 147.272C687.332 147.272 696.207 150.045 702.521 155.592C708.836 161.053 711.993 168.776 711.993 178.76C711.993 189.256 708.836 197.448 702.521 203.336C696.207 209.139 687.332 212.04 675.897 212.04H649.657L659.897 201.8V237H636.473V147.272H675.897ZM674.745 193.608C679.524 193.608 683.193 192.413 685.753 190.024C688.399 187.635 689.721 184.093 689.721 179.4C689.721 174.877 688.399 171.464 685.753 169.16C683.193 166.856 679.524 165.704 674.745 165.704H649.657L659.897 155.464V203.848L649.657 193.608H674.745ZM758.673 147.272C770.62 147.272 779.836 150.045 786.321 155.592C792.807 161.053 796.049 168.776 796.049 178.76C796.049 189.256 792.807 197.448 786.321 203.336C779.836 209.139 770.62 212.04 758.673 212.04H741.777V237H718.353V147.272H758.673ZM758.673 193.608C763.537 193.608 767.249 192.413 769.809 190.024C772.455 187.635 773.777 184.093 773.777 179.4C773.777 174.877 772.455 171.464 769.809 169.16C767.249 166.856 763.537 165.704 758.673 165.704H741.777V193.608H758.673ZM754.577 203.464H777.361L798.737 237H772.241L754.577 203.464Z" fill="#34415A"/>
<path d="M820.272 211.595C823.91 211.595 826.877 212.744 829.175 215.041C831.472 217.243 832.621 220.162 832.621 223.8C832.621 227.438 831.472 230.405 829.175 232.703C826.877 235 823.91 236.149 820.272 236.149C816.73 236.149 813.811 235 811.513 232.703C809.216 230.405 808.067 227.438 808.067 223.8C808.067 220.162 809.216 217.243 811.513 215.041C813.811 212.744 816.73 211.595 820.272 211.595Z" fill="#0658D2"/>
<path d="M870.058 207.56C866.816 207.56 864.384 208.157 862.762 209.352C861.226 210.461 860.458 212.253 860.458 214.728C860.458 217.203 861.269 219.165 862.89 220.616C864.512 221.981 866.816 222.664 869.802 222.664C872.106 222.664 874.197 222.28 876.074 221.512C878.037 220.744 879.658 219.677 880.938 218.312C882.304 216.861 883.2 215.24 883.626 213.448L886.826 223.56C884.949 228.253 881.962 231.837 877.866 234.312C873.77 236.787 868.736 238.024 862.762 238.024C857.813 238.024 853.546 237.085 849.962 235.208C846.464 233.331 843.776 230.771 841.898 227.528C840.021 224.285 839.082 220.573 839.082 216.392C839.082 209.821 841.344 204.701 845.866 201.032C850.474 197.363 857.045 195.485 865.578 195.4H885.802V207.56H870.058ZM883.626 194.632C883.626 191.304 882.517 188.701 880.298 186.824C878.08 184.947 874.794 184.008 870.442 184.008C867.541 184.008 864.298 184.477 860.714 185.416C857.13 186.355 853.461 187.763 849.706 189.64L843.434 174.536C847.104 172.915 850.645 171.549 854.058 170.44C857.557 169.245 861.098 168.349 864.682 167.752C868.266 167.155 871.936 166.856 875.69 166.856C885.333 166.856 892.757 169.075 897.962 173.512C903.253 177.864 905.941 184.008 906.026 191.944V237H883.626V194.632ZM916.213 167.88H938.869V237H916.213V167.88ZM927.605 136.136C931.104 136.136 933.963 137.288 936.181 139.592C938.485 141.811 939.637 144.669 939.637 148.168C939.637 151.581 938.485 154.44 936.181 156.744C933.963 158.963 931.104 160.072 927.605 160.072C924.107 160.072 921.205 158.963 918.901 156.744C916.683 154.44 915.573 151.581 915.573 148.168C915.573 144.669 916.683 141.811 918.901 139.592C921.205 137.288 924.107 136.136 927.605 136.136Z" fill="#0658D2"/>
</svg>
