<svg width="1021" height="351" viewBox="0 0 1021 351" fill="none" xmlns="http://www.w3.org/2000/svg">
<path d="M169 24L252.247 165.372C290.17 229.774 243.738 311 169 311C94.2624 311 47.8301 229.774 85.7529 165.372L169 24Z" fill="#1979EF"/>
<path d="M92.5208 153.877C85.7662 166.856 82.0003 181.291 82.0003 196.5C82.0003 253.109 134.159 299 198.5 299C205.341 299 212.044 298.479 218.562 297.483C204.356 305.993 187.551 311 169 311C94.2628 311 47.8295 229.774 85.7522 165.372L92.5208 153.877Z" fill="#0149BF"/>
<path d="M132.08 164.287C132.08 151.2 146.247 143.021 157.58 149.564L214.106 182.2C225.44 188.743 225.44 205.101 214.106 211.645L157.58 244.28C146.247 250.823 132.08 242.644 132.08 229.558L132.08 164.287Z" fill="white"/>
<path d="M252.719 236.426C248.035 269.621 220.979 285.098 204.604 289.746C202.383 290.377 200.144 289.048 199.427 286.853C198.631 284.415 200.021 281.81 202.43 280.932C229.414 271.098 240.01 249.749 242.877 235.754C243.523 232.598 246.84 230.469 249.841 231.642C251.785 232.402 253.01 234.359 252.719 236.426Z" fill="white"/>
<path d="M366.8 139.86C374.547 139.86 381.593 141.073 387.94 143.5C394.38 145.833 399.887 149.193 404.46 153.58C409.127 157.873 412.72 163.007 415.24 168.98C417.76 174.953 419.02 181.58 419.02 188.86C419.02 196.233 417.713 202.907 415.1 208.88C412.58 214.853 408.987 220.033 404.32 224.42C399.653 228.807 394.053 232.167 387.52 234.5C380.987 236.833 373.753 238 365.82 238H324.52V139.86H366.8ZM367.5 217.56C371.233 217.56 374.64 216.907 377.72 215.6C380.8 214.2 383.46 212.24 385.7 209.72C388.033 207.2 389.807 204.213 391.02 200.76C392.233 197.213 392.84 193.34 392.84 189.14C392.84 184.847 392.187 180.973 390.88 177.52C389.573 173.973 387.707 170.94 385.28 168.42C382.947 165.807 380.147 163.847 376.88 162.54C373.707 161.14 370.16 160.44 366.24 160.44H350.14V217.56H367.5Z" fill="#34415A"/>
<path d="M472.76 194.464C468.237 193.952 464.269 194.336 460.856 195.616C457.528 196.896 454.925 198.859 453.048 201.504C451.256 204.064 450.36 207.179 450.36 210.848L444.984 209.824C444.984 202.315 446.093 195.872 448.312 190.496C450.616 185.12 453.859 181.024 458.04 178.208C462.221 175.307 467.128 173.856 472.76 173.856V194.464ZM427.704 174.88H450.488V244H427.704V174.88ZM509.712 174.112C517.307 174.112 523.92 175.563 529.552 178.464C535.269 181.365 539.707 185.461 542.864 190.752C546.021 196.043 547.6 202.229 547.6 209.312C547.6 216.395 546.021 222.624 542.864 228C539.707 233.291 535.269 237.429 529.552 240.416C523.92 243.317 517.307 244.768 509.712 244.768C502.117 244.768 495.461 243.317 489.744 240.416C484.112 237.429 479.717 233.291 476.56 228C473.488 222.624 471.952 216.395 471.952 209.312C471.952 202.229 473.488 196.043 476.56 190.752C479.717 185.461 484.112 181.365 489.744 178.464C495.461 175.563 502.117 174.112 509.712 174.112ZM509.712 192.16C506.725 192.16 504.123 192.885 501.904 194.336C499.685 195.787 497.936 197.835 496.656 200.48C495.461 203.125 494.864 206.197 494.864 209.696C494.864 213.195 495.461 216.267 496.656 218.912C497.936 221.472 499.685 223.477 501.904 224.928C504.123 226.379 506.725 227.104 509.712 227.104C512.699 227.104 515.301 226.379 517.52 224.928C519.824 223.477 521.573 221.472 522.768 218.912C524.048 216.267 524.688 213.195 524.688 209.696C524.688 206.197 524.048 203.125 522.768 200.48C521.573 197.835 519.824 195.787 517.52 194.336C515.301 192.885 512.699 192.16 509.712 192.16ZM597.865 174.112C604.35 174.112 609.982 175.605 614.761 178.592C619.625 181.493 623.38 185.632 626.025 191.008C628.756 196.299 630.121 202.571 630.121 209.824C630.121 216.736 628.798 222.837 626.153 228.128C623.593 233.419 619.924 237.515 615.145 240.416C610.452 243.317 604.862 244.768 598.377 244.768C592.574 244.768 587.54 243.36 583.273 240.544C579.092 237.643 575.849 233.589 573.545 228.384C571.326 223.093 570.217 216.864 570.217 209.696C570.217 202.357 571.326 196.043 573.545 190.752C575.764 185.376 578.921 181.28 583.017 178.464C587.198 175.563 592.148 174.112 597.865 174.112ZM592.233 191.648C589.417 191.648 586.857 192.416 584.553 193.952C582.334 195.403 580.585 197.451 579.305 200.096C578.11 202.656 577.513 205.685 577.513 209.184C577.513 212.597 578.11 215.669 579.305 218.4C580.585 221.045 582.334 223.093 584.553 224.544C586.857 225.995 589.417 226.72 592.233 226.72C595.22 226.72 597.822 225.995 600.041 224.544C602.345 223.008 604.094 220.917 605.289 218.272C606.569 215.627 607.209 212.597 607.209 209.184C607.209 205.771 606.569 202.741 605.289 200.096C604.094 197.451 602.345 195.403 600.041 193.952C597.822 192.416 595.22 191.648 592.233 191.648ZM554.729 174.88H577.513V268.832H554.729V174.88ZM676.143 154.272C687.578 154.272 696.452 157.045 702.767 162.592C709.082 168.053 712.239 175.776 712.239 185.76C712.239 196.256 709.082 204.448 702.767 210.336C696.452 216.139 687.578 219.04 676.143 219.04H649.903L660.143 208.8V244H636.719V154.272H676.143ZM674.991 200.608C679.77 200.608 683.439 199.413 685.999 197.024C688.644 194.635 689.967 191.093 689.967 186.4C689.967 181.877 688.644 178.464 685.999 176.16C683.439 173.856 679.77 172.704 674.991 172.704H649.903L660.143 162.464V210.848L649.903 200.608H674.991ZM758.919 154.272C770.866 154.272 780.082 157.045 786.567 162.592C793.052 168.053 796.295 175.776 796.295 185.76C796.295 196.256 793.052 204.448 786.567 210.336C780.082 216.139 770.866 219.04 758.919 219.04H742.023V244H718.599V154.272H758.919ZM758.919 200.608C763.783 200.608 767.495 199.413 770.055 197.024C772.7 194.635 774.023 191.093 774.023 186.4C774.023 181.877 772.7 178.464 770.055 176.16C767.495 173.856 763.783 172.704 758.919 172.704H742.023V200.608H758.919ZM754.823 210.464H777.607L798.983 244H772.487L754.823 210.464Z" fill="#34415A"/>
<path d="M820.518 218.595C824.156 218.595 827.123 219.744 829.421 222.041C831.718 224.243 832.867 227.162 832.867 230.8C832.867 234.438 831.718 237.405 829.421 239.703C827.123 242 824.156 243.149 820.518 243.149C816.976 243.149 814.056 242 811.759 239.703C809.462 237.405 808.313 234.438 808.313 230.8C808.313 227.162 809.462 224.243 811.759 222.041C814.056 219.744 816.976 218.595 820.518 218.595Z" fill="#0658D2"/>
<path d="M870.304 214.56C867.061 214.56 864.629 215.157 863.008 216.352C861.472 217.461 860.704 219.253 860.704 221.728C860.704 224.203 861.515 226.165 863.136 227.616C864.757 228.981 867.061 229.664 870.048 229.664C872.352 229.664 874.443 229.28 876.32 228.512C878.283 227.744 879.904 226.677 881.184 225.312C882.549 223.861 883.445 222.24 883.872 220.448L887.072 230.56C885.195 235.253 882.208 238.837 878.112 241.312C874.016 243.787 868.981 245.024 863.008 245.024C858.059 245.024 853.792 244.085 850.208 242.208C846.709 240.331 844.021 237.771 842.144 234.528C840.267 231.285 839.328 227.573 839.328 223.392C839.328 216.821 841.589 211.701 846.112 208.032C850.72 204.363 857.291 202.485 865.824 202.4H886.048V214.56H870.304ZM883.872 201.632C883.872 198.304 882.763 195.701 880.544 193.824C878.325 191.947 875.04 191.008 870.688 191.008C867.787 191.008 864.544 191.477 860.96 192.416C857.376 193.355 853.707 194.763 849.952 196.64L843.68 181.536C847.349 179.915 850.891 178.549 854.304 177.44C857.803 176.245 861.344 175.349 864.928 174.752C868.512 174.155 872.181 173.856 875.936 173.856C885.579 173.856 893.003 176.075 898.208 180.512C903.499 184.864 906.187 191.008 906.272 198.944V244H883.872V201.632ZM916.459 174.88H939.115V244H916.459V174.88ZM927.851 143.136C931.35 143.136 934.208 144.288 936.427 146.592C938.731 148.811 939.883 151.669 939.883 155.168C939.883 158.581 938.731 161.44 936.427 163.744C934.208 165.963 931.35 167.072 927.851 167.072C924.352 167.072 921.451 165.963 919.147 163.744C916.928 161.44 915.819 158.581 915.819 155.168C915.819 151.669 916.928 148.811 919.147 146.592C921.451 144.288 924.352 143.136 927.851 143.136Z" fill="#0658D2"/>
</svg>
